<?xml version="1.0" standalone="no"?>
<!DOCTYPE svg PUBLIC "-//W3C//DTD SVG 20010904//EN"
 "http://www.w3.org/TR/2001/REC-SVG-20010904/DTD/svg10.dtd">
<svg version="1.0" xmlns="http://www.w3.org/2000/svg"
 width="512.000000pt" height="512.000000pt" viewBox="0 0 512.000000 512.000000"
 preserveAspectRatio="xMidYMid meet">
<metadata>
Created by potrace 1.11, written by Peter Selinger 2001-2013
</metadata>
<g transform="translate(0.000000,512.000000) scale(0.100000,-0.100000)"
fill="#000000" stroke="none">
<path d="M3111 4069 c-176 -44 -355 -165 -450 -304 -67 -97 -123 -230 -134
-315 -1 -14 -5 -29 -8 -35 -10 -20 -1 -192 13 -255 2 -12 -7 -15 -42 -14 -126
2 -340 39 -470 81 -25 8 -54 17 -65 19 -20 4 -62 18 -100 35 -11 4 -49 20 -85
35 -142 58 -408 211 -495 285 -11 10 -31 27 -45 39 -82 68 -184 165 -245 232
l-69 77 -17 -28 c-26 -43 -65 -158 -79 -233 -15 -83 -8 -240 14 -323 45 -163
147 -316 287 -427 l34 -27 -39 5 c-38 6 -50 8 -111 19 -45 9 -126 37 -163 57
-18 10 -35 18 -37 18 -8 0 7 -160 18 -190 2 -8 17 -49 31 -91 61 -173 207
-334 384 -423 28 -14 52 -24 52 -21 0 3 10 -1 23 -9 12 -8 41 -18 65 -22 24
-4 40 -10 35 -15 -19 -19 -230 -31 -295 -16 -15 3 -30 3 -32 -1 -8 -13 43
-123 85 -185 54 -79 101 -129 171 -183 51 -40 208 -129 208 -119 0 2 19 -3 43
-11 23 -8 58 -18 77 -21 19 -3 44 -7 55 -8 11 -2 32 -4 48 -4 34 -1 34 -11 -1
-33 -15 -10 -47 -31 -72 -48 -99 -65 -307 -163 -375 -176 -19 -3 -35 -11 -35
-17 0 -6 -3 -8 -6 -5 -3 3 -29 0 -57 -7 -53 -14 -91 -21 -162 -31 -22 -3 -53
-7 -70 -10 -41 -7 -274 -7 -308 -1 -41 8 -33 -5 21 -32 26 -14 58 -32 72 -41
46 -30 244 -117 335 -148 113 -38 180 -57 275 -76 191 -38 248 -43 455 -44
200 0 310 8 445 34 14 3 36 7 50 9 43 7 67 13 147 36 43 12 83 22 88 24 6 1
19 6 30 10 11 4 61 24 110 43 50 19 131 55 180 80 86 43 286 169 332 208 11
11 41 35 65 54 61 50 226 216 273 275 21 28 44 55 50 60 6 6 33 44 60 85 28
41 53 77 56 80 3 3 20 32 39 65 18 33 40 68 48 78 8 9 11 17 7 17 -4 0 0 9 11
21 10 12 18 24 18 28 -2 9 20 55 29 62 5 3 9 10 9 15 0 5 4 18 8 29 103 261
154 445 175 640 3 28 8 59 10 70 2 11 4 79 4 152 l1 132 46 32 c96 66 348 338
330 356 -3 3 -20 -1 -38 -9 -61 -28 -148 -55 -238 -73 -8 -2 -15 -4 -15 -5 0
-2 -26 -7 -85 -15 l-55 -7 40 27 c103 71 197 178 249 285 21 41 42 83 47 93 5
9 8 17 6 17 -2 0 -55 -24 -118 -54 -104 -49 -214 -90 -266 -100 -11 -3 -38 -9
-59 -15 -54 -15 -54 -15 -100 27 -22 20 -55 47 -72 60 -30 21 -165 92 -176 92
-2 0 -15 4 -28 9 -116 44 -313 53 -447 20z"/>
</g>
</svg>
